<svg width="512" height="512" viewBox="0 0 24 24" fill="none" xmlns="http://www.w3.org/2000/svg">
  <rect width="24" height="24" rx="12" fill="url(#gradient)"/>
  <path d="M19 5v14H5V5h14m0-2H5c-1.1 0-2 .9-2 2v14c0 1.1.9 2 2 2h14c1.1 0 2-.9 2-2V5c0-1.1-.9-2-2-2z" fill="white"/>
  <path d="M14 17H7v-2h7v2zm3-4H7v-2h10v2zm0-4H7V7h10v2z" fill="white"/>
  <circle cx="18" cy="18" r="6" fill="#EC4899" opacity="0.9"/>
  <defs>
    <linearGradient id="gradient" x1="0" y1="0" x2="24" y2="24" gradientUnits="userSpaceOnUse">
      <stop offset="0%" stop-color="#4F46E5"/>
      <stop offset="100%" stop-color="#EC4899"/>
    </linearGradient>
  </defs>
</svg> 